<?xml version="1.0" encoding="utf-8"?>
<!-- Generator: Adobe Illustrator 23.0.1, SVG Export Plug-In . SVG Version: 6.00 Build 0)  -->
<svg version="1.1" id="Layer_1" xmlns="http://www.w3.org/2000/svg" xmlns:xlink="http://www.w3.org/1999/xlink" x="0px" y="0px"
	 viewBox="0 0 270 165" style="enable-background:new 0 0 270 165;" xml:space="preserve">
<style type="text/css">
	.st0{fill-rule:evenodd;clip-rule:evenodd;fill:#0094DA;}
	.st1{fill:none;stroke:#5E5B5C;stroke-width:1.452;stroke-miterlimit:22.9256;}
	.st2{fill:none;stroke:#5E5B5C;stroke-width:1.452;stroke-miterlimit:22.9256;stroke-dasharray:2.9228,4.3842;}
	.st3{fill:none;stroke:#5E5B5C;stroke-width:1.452;stroke-miterlimit:22.9256;stroke-dasharray:2.9204,4.3806;}
	.st4{fill:none;stroke:#5E5B5C;stroke-width:1.452;stroke-miterlimit:22.9256;stroke-dasharray:2.9439,4.4159;}
	.st5{fill:none;stroke:#A1D9F7;stroke-width:1.452;stroke-miterlimit:22.9256;}
	.st6{fill:none;stroke:#A1D9F7;stroke-width:1.452;stroke-miterlimit:22.9256;stroke-dasharray:2.9228,4.3842;}
	.st7{fill:none;stroke:#A1D9F7;stroke-width:1.452;stroke-miterlimit:22.9256;stroke-dasharray:2.9204,4.3806;}
	.st8{fill:none;stroke:#A1D9F7;stroke-width:1.452;stroke-miterlimit:22.9256;stroke-dasharray:2.9439,4.4159;}
	.st9{fill-rule:evenodd;clip-rule:evenodd;fill:#FFFFFF;}
	.st10{fill:#FFFFFF;}
	.st11{fill:#FFFFFF;stroke:#FFFFFF;stroke-width:0.25;stroke-miterlimit:10;}
	.st12{fill:#0094DA;}
</style>
<g>
	<polygon class="st0" points="245.5,8.7 245.5,113.6 125,156.3 6.2,113.6 6.2,8.7 	"/>
	<g>
		<g>
			<polyline class="st1" points="235,19.7 236.4,19.7 236.4,21.1 			"/>
			<line class="st2" x1="236.4" y1="25.5" x2="236.4" y2="103.7"/>
			<polyline class="st1" points="236.4,105.9 236.4,107.3 235.1,107.8 			"/>
			<polyline class="st3" points="230.9,109.2 125.3,145.6 19.1,108.5 			"/>
			<polyline class="st1" points="17.1,107.8 15.7,107.3 15.7,105.9 			"/>
			<line class="st2" x1="15.7" y1="101.5" x2="15.7" y2="23.3"/>
			<polyline class="st1" points="15.7,21.1 15.7,19.7 17.1,19.7 			"/>
			<line class="st4" x1="21.6" y1="19.7" x2="232.8" y2="19.7"/>
		</g>
	</g>
	<g>
		<g>
			<polyline class="st5" points="234.8,19.6 236.2,19.6 236.2,21 			"/>
			<line class="st6" x1="236.2" y1="25.4" x2="236.2" y2="103.6"/>
			<polyline class="st5" points="236.2,105.8 236.2,107.2 234.8,107.7 			"/>
			<polyline class="st7" points="230.7,109.1 125.1,145.4 18.9,108.4 			"/>
			<polyline class="st5" points="16.8,107.7 15.5,107.2 15.5,105.8 			"/>
			<line class="st6" x1="15.5" y1="101.4" x2="15.5" y2="23.2"/>
			<polyline class="st5" points="15.5,21 15.5,19.6 16.9,19.6 			"/>
			<line class="st8" x1="21.3" y1="19.6" x2="232.6" y2="19.6"/>
		</g>
	</g>
	<g>
		<path class="st9" d="M66,56.3c0,2.9-1.5,5-4.4,6.3c-2.3,0.9-5,1.4-8.2,1.4H35v8.5c0,0.9-0.4,1.5-1.2,1.7c-0.2,0.1-1,0.2-2.3,0.2
			c-1.2,0-1.9-0.6-1.9-1.9V47.1c0-1.2,0.6-1.9,1.9-1.9h22.2c3,0,5.6,0.4,7.7,1.2c3.1,1.2,4.6,2.9,4.6,5.3V56.3L66,56.3z M60.7,56.1
			v-4c0-1.7-2.3-2.5-7-2.5H35v10.1h18.8C58.4,59.7,60.7,58.5,60.7,56.1L60.7,56.1z M107.6,66.6c0,5.2-4.5,7.8-13.5,7.8h-8.3
			c-3.7,0-6.5-0.5-8.7-1.4c-3.2-1.3-4.8-3.5-4.8-6.4v-6l2.7-1.4l2.7,1.4v5.8c0,2.4,2.7,3.6,8.2,3.6h8.5c5.4,0,8.1-1.2,8.1-3.6v-5.8
			h2.7h2.7V66.6L107.6,66.6z M72.3,57.7h5.3v-4.4c0-2.5,2.7-3.7,8.2-3.7h8.4c5.4,0,8.1,1.2,8.1,3.7l0,4.4l2.6,2.1l2.7-2.1l0-4.5
			c0-3.3-1.6-5.6-4.6-6.8c-1.7-0.7-4.7-1.1-8.9-1.1h-8.3c-9,0-13.5,2.6-13.5,7.9V57.7L72.3,57.7z M146.5,72.7c0,1.2-0.7,1.8-2.2,1.8
			c-1.6,0-2.5-0.1-2.8-0.2l-22.4-11.8v10.2c0,1.3-0.6,1.9-1.9,1.9c-1.3,0-2-0.1-2.2-0.2c-0.7-0.2-1.1-0.8-1.1-1.7V47.1
			c0-0.9,0.4-1.5,1.1-1.7c0.3-0.1,1-0.1,2.2-0.1c1.3,0,1.9,0.6,1.9,1.9v9.8l21.6-11.5c0.4-0.1,1.4-0.2,2.9-0.2
			c1.4,0,2.1,0.6,2.1,1.7c0,0.7-0.4,1.3-1.3,1.8l-20.7,10.8l21.4,11.3C146.1,71.4,146.5,72,146.5,72.7L146.5,72.7z M184.6,72.7
			c0,1.2-0.7,1.8-2.2,1.8c-1.6,0-2.5-0.1-2.8-0.2l-22.4-11.8v10.2c0,1.3-0.6,1.9-1.9,1.9c-1.3,0-2-0.1-2.2-0.2
			c-0.7-0.2-1.1-0.8-1.1-1.7V47.1c0-0.9,0.4-1.5,1.1-1.7c0.3-0.1,1-0.1,2.2-0.1c1.3,0,1.9,0.6,1.9,1.9v9.8l21.6-11.5
			c0.4-0.1,1.4-0.2,2.9-0.2c1.4,0,2.1,0.6,2.1,1.7c0,0.7-0.4,1.3-1.3,1.8l-20.7,10.8l21.4,11.3C184.1,71.4,184.6,72,184.6,72.7
			L184.6,72.7z M222,47.7c0,1.3-0.6,1.9-1.9,1.9h-11.8v23c0,1.3-0.6,1.9-1.8,1.9c-1.3,0-2,0-2.3-0.1c-0.8-0.2-1.1-0.8-1.1-1.8v-23
			h-11.7c-1.3,0-1.9-0.6-1.9-1.9c0-0.9,0.1-1.5,0.3-1.8c0.3-0.5,0.8-0.7,1.6-0.7h28.8C221.4,45.3,222,46.1,222,47.7z"/>
		<path class="st10" d="M85.9,59.9c0-1.6,0-3.2,0-4.9c0-1.2,0.4-1.5,1.5-0.9c2.8,1.6,5.6,3.2,8.4,4.9c1,0.6,1,1.1-0.1,1.7
			c-2.8,1.6-5.5,3.2-8.3,4.8c-1.1,0.6-1.5,0.4-1.5-0.8C85.9,63.1,85.9,61.5,85.9,59.9z"/>
	</g>
	<g>
		<path class="st11" d="M40.2,91.6c0,0.3,0,0.5,0,0.7v7h-1.5V88.9h1.4l5.1,6.8l4.7-6.8h1.6v10.4h-1.6v-7c0-0.1,0-0.3,0-0.6
			c0-0.3,0-0.6,0.1-1c-0.3,0.5-0.5,0.9-0.6,1.1l-4,5.8H45l-4.1-5.6c-0.1-0.1-0.2-0.3-0.4-0.5c-0.1-0.2-0.2-0.5-0.4-0.8
			C40.2,91.1,40.2,91.4,40.2,91.6z"/>
		<path class="st11" d="M60.9,90.2c0.1-0.3,0.2-0.6,0.4-0.8c0.2-0.2,0.4-0.3,0.7-0.4s0.7-0.1,1.2-0.1h7.2c0.5,0,0.9,0,1.2,0.1
			s0.6,0.2,0.7,0.4c0.2,0.2,0.3,0.4,0.4,0.8c0.1,0.3,0.1,0.7,0.1,1.2v5.5c0,0.5,0,0.9-0.1,1.2c-0.1,0.3-0.2,0.6-0.4,0.8
			c-0.2,0.2-0.4,0.3-0.7,0.4c-0.3,0.1-0.7,0.1-1.2,0.1h-7.2c-0.5,0-0.9,0-1.2-0.1c-0.3-0.1-0.6-0.2-0.7-0.4
			c-0.2-0.2-0.3-0.4-0.4-0.8c-0.1-0.3-0.1-0.7-0.1-1.2v-5.5C60.8,90.9,60.8,90.5,60.9,90.2z M71.1,97.9v-7.5h-8.6v7.5H71.1z"/>
		<path class="st11" d="M82.1,88.9h8.4c0.8,0,1.3,0.2,1.7,0.5c0.3,0.3,0.5,0.8,0.5,1.5v1.2c0,0.2,0,0.4-0.1,0.6
			c0,0.2-0.1,0.4-0.3,0.5c-0.1,0.2-0.3,0.3-0.5,0.4c-0.2,0.1-0.5,0.2-0.9,0.2c1.2,0.1,1.8,0.8,1.8,2v1.3c0,1.4-1,2-2.9,2h-7.7V88.9z
			 M90.9,91.2c0-0.4-0.1-0.6-0.3-0.7c-0.2-0.1-0.4-0.2-0.8-0.2h-6v2.9h6c0.4,0,0.6-0.1,0.8-0.2c0.2-0.1,0.3-0.4,0.3-0.7V91.2z
			 M91,95.8c0-0.5-0.1-0.8-0.3-1c-0.2-0.2-0.5-0.3-0.9-0.3h-6v3.3h6c0.4,0,0.7-0.1,0.9-0.3c0.2-0.2,0.3-0.5,0.3-1V95.8z"/>
		<path class="st11" d="M101.6,88.9h1.7v10.4h-1.7V88.9z"/>
		<path class="st11" d="M112.7,88.9h1.7v8.9h7.9v1.4h-9.6V88.9z"/>
		<path class="st11" d="M129.9,88.9h10v1.4h-8.3v2.9h5.1v1.4h-5.1v3.3h8.4v1.4h-10.1V88.9z"/>
		<path class="st11" d="M163.3,88.9h1.9l5.8,10.4H169l-1.3-2.6h-7l-1.3,2.6h-1.7L163.3,88.9z M167,95.4l-2.8-5.3l-2.8,5.3H167z"/>
		<path class="st11" d="M186.3,89.1c0.7,0.1,1.2,0.3,1.7,0.6c0.7,0.4,1.2,1,1.6,1.8s0.6,1.6,0.6,2.5c0,1-0.2,1.9-0.6,2.6
			c-0.4,0.8-0.9,1.4-1.6,1.8c-0.5,0.3-1,0.5-1.7,0.6c-0.7,0.1-1.4,0.2-2.3,0.2h-5.7V88.9h5.7C184.9,88.9,185.7,89,186.3,89.1z
			 M180,90.3v7.5h3.7c0.8,0,1.5-0.1,2-0.2c0.6-0.1,1.1-0.3,1.4-0.6c0.4-0.3,0.7-0.7,0.9-1.2c0.2-0.5,0.3-1.1,0.3-1.8
			c0-0.7-0.1-1.3-0.3-1.8s-0.5-0.9-0.9-1.2c-0.4-0.3-0.9-0.5-1.4-0.6c-0.6-0.1-1.2-0.2-2-0.2H180z"/>
		<path class="st11" d="M200.1,90.3v2.9h6.5c0.5,0,0.9,0,1.2,0.1c0.3,0.1,0.6,0.2,0.7,0.4c0.2,0.2,0.3,0.4,0.4,0.8
			c0.1,0.3,0.1,0.7,0.1,1.2v1.2c0,0.5,0,0.9-0.1,1.2c-0.1,0.3-0.2,0.6-0.4,0.8c-0.2,0.2-0.4,0.3-0.7,0.4c-0.3,0.1-0.7,0.1-1.2,0.1
			h-6.1c-0.5,0-0.9,0-1.2-0.1c-0.3-0.1-0.6-0.2-0.7-0.4c-0.2-0.2-0.3-0.4-0.4-0.8c-0.1-0.3-0.1-0.7-0.1-1.2v-0.3l1.6-0.4v1.7h7.7
			v-3.1H201c-0.5,0-0.9,0-1.2-0.1c-0.3-0.1-0.6-0.2-0.7-0.4c-0.2-0.2-0.3-0.4-0.4-0.8c-0.1-0.3-0.1-0.7-0.1-1.2v-0.9
			c0-0.5,0-0.9,0.1-1.2c0.1-0.3,0.2-0.6,0.4-0.8c0.2-0.2,0.4-0.3,0.7-0.4s0.7-0.1,1.2-0.1h5.5c0.4,0,0.8,0,1.1,0.1s0.6,0.2,0.8,0.4
			c0.2,0.2,0.3,0.4,0.4,0.7c0.1,0.3,0.1,0.7,0.1,1.1v0.2l-1.5,0.4v-1.5H200.1z"/>
	</g>
	<g>
		<path class="st12" d="M254.4,10.2h-2.6v7.3h-1.7v-7.3h-2.6V8.7h6.9V10.2z"/>
		<path class="st12" d="M262.1,12.9l0.2-1.8h-0.1l-0.5,1.4l-1.9,3.3h-0.6l-2-3.3l-0.6-1.4h-0.1l0.3,1.7v4.6h-1.6V8.7h1.6l2.4,4
			l0.4,1h0.1l0.4-1l2.2-4h1.6v8.8h-1.7V12.9z"/>
	</g>
</g>
</svg>
